<?xml version="1.0" encoding="utf-8"?>
<!-- Generator: Adobe Illustrator 22.1.0, SVG Export Plug-In . SVG Version: 6.00 Build 0)  -->
<svg version="1.1" id="Calque_1" xmlns="http://www.w3.org/2000/svg" xmlns:xlink="http://www.w3.org/1999/xlink" x="0px" y="0px"
	 viewBox="0 0 599.8 320.2" style="enable-background:new 0 0 599.8 320.2;" xml:space="preserve">
<g>
	<path d="M393.3,89c-9.2-14.4-15-28.1-15-44.9c0-15,5.3-31.2,15-44.2h6.2c-9.1,14.4-12.7,28.7-12.7,44.2c0,16.1,3.5,30.2,12.7,44.9
		H393.3z"/>
	<path d="M453.8,70.1h-8.6l-10.1-39.4h-0.2l-10,39.4h-8.8l-15.9-49.6h9l11.2,40.5h0.2l10-40.5h8.9l10.4,40.5h0.2l11.1-40.5h8.4
		L453.8,70.1z"/>
	<path d="M519.6,54.4c-2.2,10.9-10.1,16.9-21.2,16.9c-15.8,0-23.3-10.9-23.8-26.1c0-14.9,9.8-25.8,23.3-25.8
		c17.5,0,22.9,16.4,22.4,28.4h-37.1C483,56.4,487.9,64,498.7,64c6.7,0,11.4-3.3,12.8-9.7H519.6z M511.8,40.5
		c-0.4-7.8-6.2-14-14.3-14c-8.5,0-13.6,6.4-14.2,14H511.8z"/>
	<path d="M529.1,1.6h8.1v25.6h0.2c2.7-5.5,9-7.9,15.8-7.9c15.2,0,22.8,12.1,22.8,26.1c0,14-7.5,25.8-22.6,25.8
		c-5.1,0-12.4-1.9-16-7.8h-0.2v6.6h-8.1V1.6z M552.1,26.6c-10.9,0-15.1,9.4-15.1,18.7c0,9.8,4.4,18.8,15.6,18.8
		c11.1,0,14.9-9.5,14.9-19.2C567.4,35.6,562.7,26.6,552.1,26.6z"/>
	<path d="M578.6,89c9.1-14.4,12.7-28.7,12.7-44.2c0-16.1-3.5-30.2-12.7-44.9h6.2c9.2,14.4,15,28.1,15,44.9c0,15-5.3,31.2-15,44.2
		H578.6z"/>
	<path d="M26.7,116.7h10.1l26.7,68.4H53.5L46,164.5H17.1l-7.7,20.6H0L26.7,116.7z M19.9,156.8h23.2l-11.4-31.9h-0.2L19.9,156.8z"/>
	<path d="M91.3,185.1h-8.7l-18.4-49.6h9.1l13.9,41.3h0.2l13.5-41.3h8.5L91.3,185.1z"/>
	<path d="M160.7,184.9c-1.4,0.9-3.3,1.3-5.8,1.3c-4.2,0-6.9-2.3-6.9-7.7c-4.5,5.3-10.5,7.7-17.4,7.7c-9,0-16.4-4-16.4-13.9
		c0-11.2,8.3-13.6,16.8-15.2c9-1.7,16.7-1.2,16.7-7.3c0-7.1-5.8-8.2-11-8.2c-6.9,0-12,2.1-12.4,9.4h-8.1c0.5-12.3,10-16.6,21-16.6
		c8.9,0,18.6,2,18.6,13.6v25.5c0,3.8,0,5.6,2.6,5.6c0.7,0,1.4-0.1,2.5-0.5V184.9z M147.5,159.5c-3.2,2.3-9.3,2.4-14.8,3.4
		c-5.4,1-10,2.9-10,8.9c0,5.4,4.6,7.3,9.6,7.3c10.7,0,15.1-6.7,15.1-11.2V159.5z"/>
	<path d="M168.3,135.5h7.7v7.9h0.2c3.5-6.1,9-9,16.1-9c13,0,17.1,7.5,17.1,18.1v32.6h-8.1v-33.5c0-6-3.8-10-10.1-10
		c-9.9,0-14.7,6.6-14.7,15.5v28h-8.1V135.5z"/>
	<path d="M232.9,135.5h9.9v7.2h-9.9v30.8c0,3.7,1.1,4.4,6.1,4.4h3.7v7.2h-6.2c-8.4,0-11.8-1.7-11.8-10.8v-31.5h-8.4v-7.2h8.4v-14.9
		h8.1V135.5z"/>
	<path d="M250.5,154.6h27.7v7.7h-27.7V154.6z"/>
	<path d="M129.5,295.9c0,16.1-7.4,24.3-23,24.3c-9.3,0-20-3.7-20.5-14.6h8.1c0.4,5.9,7.5,8.1,12.8,8.1c10.6,0,14.9-7.7,14.9-18.8
		v-3.3h-0.2c-2.7,6-9.2,9-15.4,9c-14.8,0-22.1-11.6-22.1-25.1c0-11.7,5.8-26.2,22.9-26.2c6.2,0,11.8,2.8,14.8,8.2h0.1v-7.1h7.7
		V295.9z M121.4,274.3c0-8.7-3.8-17.7-14.1-17.7c-10.4,0-14.7,8.5-14.7,18c0,8.9,3.3,18.9,14,18.9S121.4,283.6,121.4,274.3z"/>
	<path d="M185.7,299.9c-1.4,0.9-3.3,1.3-5.8,1.3c-4.2,0-6.9-2.3-6.9-7.7c-4.5,5.3-10.5,7.7-17.4,7.7c-9,0-16.4-4-16.4-13.9
		c0-11.2,8.3-13.6,16.8-15.2c9-1.7,16.7-1.2,16.7-7.3c0-7.1-5.8-8.2-11-8.2c-6.9,0-12,2.1-12.4,9.4H141c0.5-12.3,10-16.6,21-16.6
		c8.9,0,18.6,2,18.6,13.6v25.5c0,3.8,0,5.6,2.6,5.6c0.7,0,1.4-0.1,2.5-0.5V299.9z M172.4,274.5c-3.2,2.3-9.3,2.4-14.8,3.4
		c-5.4,1-10,2.9-10,8.9c0,5.4,4.6,7.3,9.6,7.3c10.7,0,15.1-6.7,15.1-11.2V274.5z"/>
	<path d="M192.9,250.6h7.7V261h0.2c3.9-8,9.4-11.9,18.2-11.6v8.6c-13.1,0-17.9,7.5-17.9,20v22h-8.1V250.6z"/>
	<path d="M269.4,300.1h-8.1v-6.7h-0.2c-2.7,5.5-9,7.9-15.8,7.9c-15.2,0-22.8-12.1-22.8-26.1c0-14,7.5-25.8,22.6-25.8
		c5.1,0,12.4,1.9,16,7.8h0.2v-25.5h8.1V300.1z M246.4,294.1c10.9,0,15.1-9.4,15.1-18.7c0-9.8-4.4-18.8-15.6-18.8
		c-11.1,0-14.9,9.5-14.9,19.2C231.1,285.1,235.9,294.1,246.4,294.1z"/>
	<path d="M324.3,284.4c-2.2,10.9-10.1,16.9-21.2,16.9c-15.8,0-23.3-10.9-23.8-26.1c0-14.9,9.8-25.8,23.3-25.8
		c17.5,0,22.9,16.4,22.4,28.4h-37.1c-0.3,8.6,4.6,16.3,15.4,16.3c6.7,0,11.4-3.3,12.8-9.7H324.3z M316.4,270.6
		c-0.4-7.8-6.2-14-14.3-14c-8.5,0-13.6,6.4-14.2,14H316.4z"/>
	<path d="M338.5,284.5c0.3,7.3,6.6,9.6,13.3,9.6c5.1,0,12-1.2,12-7.4c0-6.3-8.1-7.4-16.2-9.2c-8.1-1.8-16.2-4.5-16.2-14
		c0-10,9.9-14.1,18.5-14.1c10.9,0,19.7,3.5,20.3,15.5H362c-0.6-6.3-6.1-8.3-11.5-8.3c-4.9,0-10.5,1.3-10.5,6.3
		c0,5.8,8.6,6.8,16.2,8.6c8.1,1.8,16.2,4.5,16.2,14.1c0,11.8-11,15.6-21.1,15.6c-11.1,0-20.5-4.5-21-16.8H338.5z"/>
</g>
</svg>
